# xmcd
#
# Track frame offsets:
#	150
#	14246
#	28989
#	41499
#	56085
#	76411
#	88290
#	102615
#	114515
#	127885
#	141634
#	154561
#	165494
#	181686
#	207593
#	227732
#	241655
#	258801
#	272958
#	285592
#	299260
# Disc length: 4148 seconds
# Revision: 1
# Processed by: cddbd v1.5PL3 Copyright (c) Steve Scherf et al.
#
# Submitted via: libkcddb 0.10
#
DISCID=34103215
DTITLE=Ella Fitzgerald - The Immortal Ella Fitzgerald
DYEAR=1900
DGENRE=Unknown
TTITLE0=Everyone's Wrong But Me
TTITLE1=Deep In The Heart Of The Soul
TTITLE2=Big Boy Blue
TTITLE3=The Dipsy Doodle
TTITLE4=I Want You To Be Happy
TTITLE5=If Dreams Come True
TTITLE6=Holiday In Harlem
TTITLE7=All Or Nothing At All
TTITLE8=It's Wonderful
TTITLE9=Basin Street Blues
TTITLE10=Little White Lies
TTITLE11=That Old Black Magic
TTITLE12=Moonlight In Vermont
TTITLE13=Cheek To Cheek
TTITLE14=A Foggy Day
TTITLE15=Taking A Chance On Love
TTITLE16=A Fine Romance
TTITLE17=My Heart Belongs To Daddy
TTITLE18=Ella
TTITLE19=My Melancholy Baby
TTITLE20=I'm The Lonesomest Gal In Tone
EXTD=
EXTT0=
EXTT1=
EXTT2=
EXTT3=
EXTT4=
EXTT5=
EXTT6=
EXTT7=
EXTT8=
EXTT9=
EXTT10=
EXTT11=
EXTT12=
EXTT13=
EXTT14=
EXTT15=
EXTT16=
EXTT17=
EXTT18=
EXTT19=
EXTT20=
PLAYORDER=
